Coordinates
version=1
nRows=14
nColumns=33
inDegrees=yes

Units are S.I. units (second, meters, Newtons, ...)
Angles are in degrees.

endheader
time	ground_thorax_rot_x	ground_thorax_rot_y	ground_thorax_rot_z	ground_thorax_tx	ground_thorax_ty	ground_thorax_tz	clav_prot_r	clav_elev_r	scapula_abduction_r	scapula_elevation_r	scapula_upward_rot_r	scapula_winging_r	shoulder_elv_r	plane_of_elev_r	axial_rot_r	elbow_flexion_r	pro_sup_r	wrist_flex_r	wrist_dev_r	clav_prot_l	clav_elev_l	scapula_abduction_l	scapula_elevation_l	scapula_upward_rot_l	scapula_winging_l	shoulder_elv_l	plane_of_elev_l	axial_rot_l	elbow_flexion_l	pro_sup_l	wrist_flex_l	wrist_dev_l	
9.0300	-29.484027	-25.785015	37.398096	-66.409509	773.386064	6.772361	10.162044	-45.000000	40.635799	-45.000000	-45.000000	-2613.785228	-2631.367366	148.439709	180.000000	1801.659862	54.598807	20.507338	15.822547	15.907915	38.435989	-35.852183	-45.000000	-44.999993	436.803806	-2981.444322	134.617445	-165.923389	3.121874	29.090279	13.538680	-19.193169	
9.0400	-29.523167	-25.693038	37.342934	-66.848452	773.694709	6.859447	10.207660	-45.000000	40.668605	-45.000000	-45.000000	-2613.857546	-2631.352861	148.377716	180.000000	1801.765322	54.964256	20.647969	15.737102	15.907013	38.376587	-35.914651	-45.000000	-44.999988	436.907740	-2981.366679	134.480416	-165.435887	3.103835	29.482928	13.567959	-19.295417	
9.0500	-29.547889	-25.623687	37.323868	-67.395585	774.040681	6.947858	10.263634	-45.000000	40.701408	-45.000000	-45.000000	-2613.938709	-2631.330203	148.337674	180.000000	1801.863719	55.277314	20.812196	15.652849	15.950079	38.406668	-35.955168	-45.000000	-44.999978	436.964371	-2981.260707	134.414512	-164.945435	3.091680	29.832897	13.646484	-19.392736	
9.0600	-29.628777	-25.501164	37.213188	-68.172282	774.467395	7.040421	10.284676	-45.000000	40.718877	-45.000000	-45.000000	-2613.988571	-2631.272254	148.284708	180.000000	1801.987847	55.476463	20.944928	15.589825	15.965351	38.429627	-36.034059	-45.000000	-44.999960	437.054133	-2981.129192	134.324337	-164.486067	3.117876	30.071928	13.655405	-19.484151	
9.0700	-29.747278	-25.347442	37.044913	-69.199230	774.981701	7.135699	10.292678	-45.000000	40.730899	-45.000000	-45.000000	-2614.025752	-2631.182301	148.226100	180.000000	1802.135012	55.561627	21.066024	15.541646	15.978755	38.471856	-36.131889	-45.000000	-44.999929	437.162009	-2980.964136	134.237386	-164.046147	3.174419	30.197738	13.639597	-19.567941	
9.0800	-29.903613	-25.154581	36.809141	-70.513283	775.597425	7.232436	10.290175	-45.000000	40.746322	-45.000000	-45.000000	-2614.061550	-2631.054751	148.153045	180.000000	1802.313623	55.522809	21.183950	15.507412	15.992037	38.532677	-36.255230	-45.000000	-44.999873	437.298867	-2980.776626	134.147022	-163.624082	3.266028	30.197265	13.610846	-19.645445	
9.0900	-30.099920	-24.925031	36.505984	-72.123221	776.319901	7.327954	10.286931	-45.000000	40.772486	-45.000000	-45.000000	-2614.102728	-2630.897711	148.065621	180.000000	1802.528159	55.369476	21.301699	15.482629	16.004961	38.596531	-36.405123	-45.000000	-44.999772	437.476700	-2980.565421	134.047159	-163.215796	3.386399	30.074685	13.578138	-19.716414	
9.1000	-30.312103	-24.676489	36.166281	-74.025250	777.152148	7.418941	10.289215	-45.000000	40.818771	-45.000000	-45.000000	-2614.170016	-2630.712027	147.963562	180.000000	1802.775886	55.113546	21.427156	15.463317	16.035795	38.650784	-36.561766	-45.000000	-44.999592	437.690378	-2980.341359	133.940312	-162.798746	3.522730	29.836505	13.558670	-19.779781	
9.1100	-30.550502	-24.396652	35.773000	-76.214602	778.099176	7.501883	10.294376	-45.000000	40.883690	-45.000000	-45.000000	-2614.256848	-2630.499840	147.846158	180.000000	1803.063551	54.769085	21.555210	15.445257	16.072969	38.682187	-36.736824	-45.000000	-44.999269	437.950958	-2980.105628	133.813389	-162.378855	3.673650	29.498303	13.542285	-19.837853	
9.1200	-30.805301	-24.094049	35.343027	-78.686071	779.167570	7.573213	10.301395	-45.000000	40.965310	-45.000000	-45.000000	-2614.369677	-2630.263927	147.716785	180.000000	1803.385801	54.348868	21.688635	15.426054	16.123686	38.694298	-36.921383	-45.000000	-44.998690	438.247415	-2979.861021	133.677696	-161.955292	3.836238	29.074306	13.532574	-19.892173	
9.1300	-31.089471	-23.758548	34.860823	-81.433300	780.364312	7.629297	10.309729	-45.000000	41.054292	-45.000000	-45.000000	-2614.493911	-2630.004251	147.582270	180.000000	1803.744184	53.869629	21.823447	15.400000	16.179197	38.707502	-37.121337	-45.000000	-44.997654	438.572828	-2979.596519	133.540871	-161.549928	4.017392	28.585844	13.522694	-19.946273	
9.1400	-31.386842	-23.404874	34.350889	-84.449116	781.695802	7.666698	10.320764	-45.000000	41.148574	-45.000000	-45.000000	-2614.636381	-2629.719447	147.444183	180.000000	1804.127647	53.347534	21.956659	15.365523	16.244631	38.714664	-37.317539	-45.000000	-44.995795	438.914744	-2979.311975	133.413193	-161.167412	4.212275	28.042377	13.508736	-19.999952	
9.1500	-31.707527	-23.019062	33.793825	-87.725072	783.166699	7.682254	10.333875	-45.000000	41.243570	-45.000000	-45.000000	-2614.787833	-2629.406948	147.301701	180.000000	1804.534198	52.800675	22.089165	15.317864	16.308590	38.734277	-37.520367	-45.000000	-44.992475	439.269936	-2979.008896	133.298156	-160.833245	4.429375	27.458211	13.488236	-20.057634	
9.1600	-32.042033	-22.612893	33.205146	-91.251360	784.779104	7.673256	10.348226	-45.000000	41.341512	-45.000000	-45.000000	-2614.954238	-2629.072676	147.156750	180.000000	1804.954674	52.246285	22.219608	15.254975	16.372833	38.753673	-37.721222	-45.000000	-44.986501	439.635685	-2978.692819	133.200590	-160.561475	4.661094	26.839883	13.456882	-20.118891	
